<svg xmlns="http://www.w3.org/2000/svg" width="800" height="500" viewBox="0 0 800 500">
  <defs>
    <linearGradient id="bg2" x1="0%" y1="0%" x2="100%" y2="100%">
      <stop offset="0%" style="stop-color:#667EEA"/>
      <stop offset="100%" style="stop-color:#764BA2"/>
    </linearGradient>
    <filter id="blur2"><feGaussianBlur stdDeviation="40"/></filter>
  </defs>
  <rect width="800" height="500" fill="url(#bg2)"/>
  <circle cx="100" cy="50" r="150" fill="#FF6B6B" opacity="0.3" filter="url(#blur2)"/>
  <circle cx="700" cy="450" r="120" fill="#48bb78" opacity="0.25" filter="url(#blur2)"/>
  <text x="400" y="180" text-anchor="middle" fill="white" font-family="system-ui,sans-serif" font-size="60" opacity="0.9">&#128722;</text>
  <text x="400" y="260" text-anchor="middle" fill="white" font-family="system-ui,sans-serif" font-size="48" font-weight="700">VendIA</text>
  <text x="400" y="310" text-anchor="middle" fill="white" font-family="system-ui,sans-serif" font-size="20" opacity="0.85">AI-Powered POS for Traditional Retail</text>
  <g transform="translate(155,360)">
    <rect x="0" y="0" width="90" height="30" rx="15" fill="rgba(255,255,255,0.2)"/>
    <text x="45" y="20" text-anchor="middle" fill="white" font-family="system-ui,sans-serif" font-size="12">Go + Gin</text>
  </g>
  <g transform="translate(255,360)">
    <rect x="0" y="0" width="80" height="30" rx="15" fill="rgba(255,255,255,0.2)"/>
    <text x="40" y="20" text-anchor="middle" fill="white" font-family="system-ui,sans-serif" font-size="12">Flutter</text>
  </g>
  <g transform="translate(345,360)">
    <rect x="0" y="0" width="100" height="30" rx="15" fill="rgba(255,255,255,0.2)"/>
    <text x="50" y="20" text-anchor="middle" fill="white" font-family="system-ui,sans-serif" font-size="12">Next.js 16</text>
  </g>
  <g transform="translate(455,360)">
    <rect x="0" y="0" width="120" height="30" rx="15" fill="rgba(255,255,255,0.2)"/>
    <text x="60" y="20" text-anchor="middle" fill="white" font-family="system-ui,sans-serif" font-size="12">Gemini AI OCR</text>
  </g>
  <g transform="translate(585,360)">
    <rect x="0" y="0" width="110" height="30" rx="15" fill="rgba(255,255,255,0.2)"/>
    <text x="55" y="20" text-anchor="middle" fill="white" font-family="system-ui,sans-serif" font-size="12">Offline-First</text>
  </g>
</svg>